<svg width="107" height="43" viewBox="0 0 107 43" fill="none" xmlns="http://www.w3.org/2000/svg">
<path d="M5.81511 40.6004C5.74171 40.7665 5.64336 40.9124 5.51565 41.0366C5.38941 41.1608 5.24115 41.2591 5.07233 41.3313C4.90352 41.4021 4.72149 41.4382 4.52919 41.4382H4.12551C3.93321 41.4382 3.75119 41.4021 3.5809 41.3313C3.41062 41.2605 3.26236 41.1608 3.13465 41.0366C3.00841 40.9124 2.90859 40.7665 2.83519 40.6004C2.76179 40.4342 2.72656 40.2551 2.72656 40.0659V37.0627C2.72656 36.8735 2.76326 36.6944 2.83519 36.5282C2.90712 36.3621 3.00694 36.2162 3.13465 36.092C3.26089 35.9678 3.41062 35.8695 3.5809 35.7973C3.75119 35.7265 3.93321 35.6904 4.12551 35.6904H4.52919C4.72149 35.6904 4.90352 35.7265 5.07233 35.7973C5.24115 35.8695 5.38941 35.9678 5.51565 36.092C5.64189 36.2162 5.74171 36.3621 5.81511 36.5282C5.88704 36.6944 5.92374 36.8735 5.92374 37.0627V40.0659C5.92374 40.2551 5.88704 40.4342 5.81511 40.6004ZM5.41289 37.0627C5.41289 36.9385 5.38941 36.8215 5.34096 36.7131C5.29252 36.6048 5.22793 36.5109 5.1472 36.43C5.06499 36.3491 4.96958 36.2856 4.85948 36.2393C4.74938 36.1931 4.63195 36.1686 4.50424 36.1686H4.14753C4.02129 36.1686 3.90238 36.1917 3.79229 36.2393C3.68219 36.2856 3.58678 36.3491 3.5031 36.43C3.41943 36.5109 3.35484 36.6048 3.3064 36.7131C3.25796 36.8215 3.23447 36.937 3.23447 37.0627V40.0659C3.23447 40.1901 3.25796 40.3071 3.3064 40.4155C3.35484 40.5238 3.41943 40.6177 3.5031 40.7C3.58678 40.7824 3.68219 40.8459 3.79229 40.8936C3.90238 40.9398 4.01982 40.9644 4.14753 40.9644H4.50424C4.63048 40.9644 4.74938 40.9413 4.85948 40.8936C4.96958 40.8474 5.06499 40.7824 5.1472 40.7C5.2294 40.6177 5.29399 40.5238 5.34096 40.4155C5.38794 40.3071 5.41289 40.1915 5.41289 40.0659V37.0627Z" fill="#606161"/>
<path d="M9.43521 40.7212C9.37356 40.8642 9.28842 40.9885 9.17979 41.0954C9.07116 41.2023 8.94492 41.286 8.79959 41.3467C8.65427 41.4074 8.50013 41.4377 8.33572 41.4377H8.21242C8.03039 41.4377 7.86158 41.4016 7.70451 41.3279C7.54744 41.2543 7.41533 41.1532 7.30376 41.0246V42.9588H6.81641V37.3656H6.97935L7.24504 37.7715C7.35661 37.6227 7.49459 37.5057 7.66341 37.4191C7.83075 37.3324 8.01425 37.2891 8.21242 37.2891H8.33572C8.50013 37.2891 8.65427 37.3194 8.79959 37.3801C8.94492 37.4407 9.07116 37.5245 9.17979 37.6314C9.28842 37.7383 9.37356 37.8625 9.43521 38.0055C9.49687 38.1486 9.52769 38.3002 9.52769 38.462V40.2633C9.52769 40.4251 9.49687 40.5768 9.43521 40.7198V40.7212ZM9.04034 38.436C9.04034 38.3392 9.02125 38.2497 8.98455 38.1644C8.94786 38.0807 8.89795 38.007 8.83336 37.9434C8.77023 37.8813 8.69537 37.8322 8.60876 37.7946C8.52215 37.7585 8.43114 37.7398 8.33279 37.7398H8.00837C7.91002 37.7398 7.81901 37.7585 7.7324 37.7946C7.64579 37.8308 7.5724 37.8799 7.50781 37.9434C7.44468 38.0055 7.39477 38.0792 7.35661 38.1644C7.31991 38.2482 7.30083 38.3392 7.30083 38.436V40.2922C7.30083 40.389 7.31991 40.4786 7.35661 40.5638C7.39331 40.649 7.44322 40.7212 7.50781 40.7848C7.57093 40.8469 7.64579 40.896 7.7324 40.9336C7.81901 40.9711 7.91002 40.9885 8.00837 40.9885H8.33279C8.43114 40.9885 8.52215 40.9697 8.60876 40.9336C8.6939 40.8975 8.76877 40.8484 8.83336 40.7848C8.89795 40.7212 8.94639 40.649 8.98455 40.5638C9.02125 40.48 9.04034 40.389 9.04034 40.2922V38.436Z" fill="#606161"/>
<path d="M12.9596 40.7218C12.898 40.8648 12.8128 40.989 12.7042 41.0959C12.5956 41.2028 12.4693 41.2866 12.324 41.3472C12.1787 41.4079 12.0245 41.4382 11.8601 41.4382H11.5357C11.3713 41.4382 11.2172 41.4079 11.0718 41.3472C10.9265 41.2866 10.8003 41.2028 10.6917 41.0959C10.583 40.989 10.4979 40.8648 10.4362 40.7218C10.3746 40.5787 10.3438 40.4271 10.3438 40.2653V38.464C10.3438 38.3022 10.3746 38.1505 10.4362 38.0075C10.4979 37.8645 10.583 37.7403 10.6917 37.6334C10.8003 37.5265 10.9265 37.4427 11.0718 37.382C11.2172 37.3214 11.3713 37.291 11.5357 37.291H11.8601C12.0245 37.291 12.1787 37.3214 12.324 37.382C12.4693 37.4427 12.5956 37.5265 12.7042 37.6334C12.8128 37.7403 12.898 37.8645 12.9596 38.0075C13.0213 38.1505 13.0521 38.3022 13.0521 38.464V39.4044H10.8282V40.2942C10.8282 40.391 10.8473 40.4805 10.884 40.5657C10.9207 40.651 10.9706 40.7232 11.0351 40.7868C11.0983 40.8489 11.1731 40.898 11.2597 40.9355C11.3464 40.9731 11.4374 40.9904 11.5357 40.9904H11.8601C11.9585 40.9904 12.0495 40.9716 12.1361 40.9355C12.2212 40.8994 12.2961 40.8503 12.3607 40.7868C12.4253 40.7232 12.4737 40.651 12.5119 40.5657C12.5486 40.482 12.5677 40.391 12.5677 40.2942V40.0284L13.055 40.1064V40.2667C13.055 40.4285 13.0242 40.5802 12.9626 40.7232L12.9596 40.7218ZM12.5647 38.4365C12.5647 38.3397 12.5457 38.2502 12.509 38.165C12.4723 38.0812 12.4224 38.0075 12.3578 37.9439C12.2946 37.8818 12.2198 37.8327 12.1332 37.7952C12.0466 37.759 11.9555 37.7403 11.8572 37.7403H11.5328C11.4344 37.7403 11.3434 37.759 11.2568 37.7952C11.1702 37.8313 11.0968 37.8804 11.0322 37.9439C10.9691 38.0061 10.9192 38.0797 10.881 38.165C10.8443 38.2487 10.8252 38.3397 10.8252 38.4365V39.0288H12.5603V38.4365H12.5647Z" fill="#606161"/>
<path d="M16.0862 41.3617V38.4365C16.0862 38.3397 16.0672 38.2502 16.0305 38.165C15.9938 38.0812 15.9438 38.0075 15.8793 37.9439C15.8161 37.8818 15.7413 37.8327 15.6547 37.7952C15.5681 37.759 15.477 37.7403 15.3787 37.7403H15.0543C14.9559 37.7403 14.8649 37.759 14.7783 37.7952C14.6917 37.8313 14.6183 37.8804 14.5537 37.9439C14.4906 38.0061 14.4407 38.0797 14.4025 38.165C14.3658 38.2487 14.3467 38.3397 14.3467 38.4365V41.3617H13.8594V37.3676H14.0223L14.288 37.7735C14.3996 37.6247 14.5376 37.5077 14.7064 37.421C14.8737 37.3344 15.0572 37.291 15.2554 37.291H15.3787C15.5431 37.291 15.6972 37.3214 15.8426 37.382C15.9879 37.4427 16.1141 37.5265 16.2228 37.6334C16.3314 37.7403 16.4165 37.8645 16.4782 38.0075C16.5398 38.1505 16.5707 38.3022 16.5707 38.464V41.3617H16.0833H16.0862Z" fill="#606161"/>
<path d="M22.1849 41.3613L19.8156 37.2892L19.7687 37.0479V41.3613H19.2578V35.7695H19.5235L21.8928 39.8445L21.9441 40.0829V35.7695H22.455V41.3613H22.1849Z" fill="#606161"/>
<path d="M25.9674 40.7218C25.9058 40.8648 25.8206 40.989 25.712 41.0959C25.6034 41.2028 25.4771 41.2866 25.3318 41.3472C25.1865 41.4079 25.0324 41.4382 24.8679 41.4382H24.5435C24.3791 41.4382 24.225 41.4079 24.0797 41.3472C23.9343 41.2866 23.8081 41.2028 23.6995 41.0959C23.5908 40.989 23.5057 40.8648 23.444 40.7218C23.3824 40.5787 23.3516 40.4271 23.3516 40.2653V38.464C23.3516 38.3022 23.3824 38.1505 23.444 38.0075C23.5057 37.8645 23.5908 37.7403 23.6995 37.6334C23.8081 37.5265 23.9343 37.4427 24.0797 37.382C24.225 37.3214 24.3791 37.291 24.5435 37.291H24.8679C25.0324 37.291 25.1865 37.3214 25.3318 37.382C25.4771 37.4427 25.6034 37.5265 25.712 37.6334C25.8206 37.7403 25.9058 37.8645 25.9674 38.0075C26.0291 38.1505 26.0599 38.3022 26.0599 38.464V39.4044H23.836V40.2942C23.836 40.391 23.8551 40.4805 23.8918 40.5657C23.9285 40.651 23.9784 40.7232 24.043 40.7868C24.1061 40.8489 24.1809 40.898 24.2676 40.9355C24.3542 40.9731 24.4452 40.9904 24.5435 40.9904H24.8679C24.9663 40.9904 25.0573 40.9716 25.1439 40.9355C25.2291 40.8994 25.3039 40.8503 25.3685 40.7868C25.4331 40.7232 25.4815 40.651 25.5197 40.5657C25.5564 40.482 25.5755 40.391 25.5755 40.2942V40.0284L26.0628 40.1064V40.2667C26.0628 40.4285 26.032 40.5802 25.9704 40.7232L25.9674 40.7218ZM25.5726 38.4365C25.5726 38.3397 25.5535 38.2502 25.5168 38.165C25.4801 38.0812 25.4302 38.0075 25.3656 37.9439C25.3025 37.8818 25.2276 37.8327 25.141 37.7952C25.0544 37.759 24.9634 37.7403 24.865 37.7403H24.5406C24.4422 37.7403 24.3512 37.759 24.2646 37.7952C24.178 37.8313 24.1046 37.8804 24.04 37.9439C23.9769 38.0061 23.927 38.0797 23.8888 38.165C23.8521 38.2487 23.833 38.3397 23.833 38.4365V39.0288H25.5682V38.4365H25.5726Z" fill="#606161"/>
<path d="M28.351 41.3613C28.2027 41.3613 28.0633 41.3339 27.9326 41.279C27.802 41.2241 27.6889 41.149 27.592 41.0522C27.4952 40.9554 27.4188 40.8442 27.3616 40.7171C27.3043 40.59 27.2764 40.4527 27.2764 40.3083V37.8237H26.5469V37.3672H27.2764V36.4081L27.7638 36.3301V37.3672H28.7943V37.8237H27.7638V40.3314C27.7638 40.4123 27.7785 40.4874 27.8093 40.5553C27.8401 40.6246 27.8812 40.6853 27.9341 40.7359C27.9869 40.7879 28.0486 40.8283 28.1205 40.8586C28.1924 40.889 28.2688 40.9034 28.351 40.9034H28.7943V41.3599H28.351V41.3613Z" fill="#606161"/>
<path d="M32.9465 41.3613H32.6808L31.7296 38.3509L31.7135 38.1443L31.6973 38.3509L30.7461 41.3613H30.476L29.1211 37.3672H29.6158L30.5832 40.3862L30.5993 40.5928L30.6155 40.3862L31.5667 37.3672H31.8603L32.8071 40.3862L32.8232 40.5928L32.8394 40.3862L33.8068 37.3672H34.3015L32.9465 41.3613Z" fill="#606161"/>
<path d="M37.3268 40.7218C37.2652 40.8648 37.18 40.989 37.0714 41.0959C36.9628 41.2028 36.8365 41.2866 36.6912 41.3472C36.5459 41.4079 36.3917 41.4382 36.2273 41.4382H35.9029C35.7385 41.4382 35.5844 41.4079 35.439 41.3472C35.2937 41.2866 35.1675 41.2028 35.0588 41.0959C34.9502 40.989 34.8651 40.8648 34.8034 40.7218C34.7418 40.5787 34.7109 40.4271 34.7109 40.2653V38.464C34.7109 38.3022 34.7418 38.1505 34.8034 38.0075C34.8651 37.8645 34.9502 37.7403 35.0588 37.6334C35.1675 37.5265 35.2937 37.4427 35.439 37.382C35.5844 37.3214 35.7385 37.291 35.9029 37.291H36.2273C36.3917 37.291 36.5459 37.3214 36.6912 37.382C36.8365 37.4427 36.9628 37.5265 37.0714 37.6334C37.18 37.7403 37.2652 37.8645 37.3268 38.0075C37.3885 38.1505 37.4193 38.3022 37.4193 38.464V40.2653C37.4193 40.4271 37.3885 40.5787 37.3268 40.7218ZM36.9319 38.4365C36.9319 38.3397 36.9128 38.2502 36.8761 38.165C36.8395 38.0812 36.7895 38.0075 36.725 37.9439C36.6618 37.8818 36.587 37.8327 36.5004 37.7952C36.4137 37.759 36.3227 37.7403 36.2244 37.7403H35.9C35.8016 37.7403 35.7106 37.759 35.624 37.7952C35.5374 37.8313 35.464 37.8804 35.3994 37.9439C35.3363 38.0061 35.2864 38.0797 35.2482 38.165C35.2115 38.2487 35.1924 38.3397 35.1924 38.4365V40.2927C35.1924 40.3895 35.2115 40.4791 35.2482 40.5643C35.2849 40.6495 35.3348 40.7218 35.3994 40.7853C35.4625 40.8474 35.5374 40.8965 35.624 40.9341C35.7106 40.9717 35.8016 40.989 35.9 40.989H36.2244C36.3227 40.989 36.4137 40.9702 36.5004 40.9341C36.5855 40.898 36.6604 40.8489 36.725 40.7853C36.7895 40.7218 36.838 40.6495 36.8761 40.5643C36.9128 40.4805 36.9319 40.3895 36.9319 40.2927V38.4365Z" fill="#606161"/>
<path d="M39.4254 37.8236C39.327 37.8236 39.236 37.8424 39.1494 37.8785C39.0628 37.9146 38.9894 37.9637 38.9248 38.0273C38.8617 38.0894 38.8118 38.163 38.7736 38.2483C38.7369 38.332 38.7178 38.423 38.7178 38.5198V41.3626H38.2305V37.3686H38.3934L38.6591 37.7745C38.7707 37.6257 38.9087 37.5087 39.0775 37.422C39.2448 37.3353 39.4283 37.292 39.6265 37.292H39.9113V37.8265H39.4239L39.4254 37.8236Z" fill="#606161"/>
<path d="M40.5625 41.3613V35.7695H41.0499V41.3613H40.5625ZM42.8011 41.3613L41.1453 39.3649L42.8011 37.3686H43.4353L41.7398 39.3649L43.4353 41.3613H42.8011Z" fill="#606161"/>
<path d="M47.0214 36.2245C46.9392 36.2245 46.8628 36.239 46.7939 36.2693C46.7234 36.2996 46.6617 36.3401 46.6089 36.3921C46.556 36.4441 46.5149 36.5047 46.4841 36.5755C46.4533 36.6463 46.4386 36.7214 46.4386 36.8023V37.3671H47.3854V37.8236H46.4386V41.3612H45.9513V37.8236H45.2188V37.3671H45.9513V36.8254C45.9513 36.6795 45.9791 36.5423 46.0349 36.4137C46.0907 36.2852 46.167 36.1725 46.2654 36.0757C46.3637 35.9789 46.4768 35.9038 46.606 35.8489C46.7351 35.794 46.8746 35.7666 47.0214 35.7666H47.4691V36.2231H47.0214V36.2245Z" fill="#606161"/>
<path d="M50.4127 40.7218C50.3511 40.8648 50.266 40.989 50.1573 41.0959C50.0487 41.2028 49.9225 41.2866 49.7771 41.3472C49.6318 41.4079 49.4777 41.4382 49.3133 41.4382H48.9888C48.8244 41.4382 48.6703 41.4079 48.525 41.3472C48.3796 41.2866 48.2534 41.2028 48.1448 41.0959C48.0361 40.989 47.951 40.8648 47.8894 40.7218C47.8277 40.5787 47.7969 40.4271 47.7969 40.2653V38.464C47.7969 38.3022 47.8277 38.1505 47.8894 38.0075C47.951 37.8645 48.0361 37.7403 48.1448 37.6334C48.2534 37.5265 48.3796 37.4427 48.525 37.382C48.6703 37.3214 48.8244 37.291 48.9888 37.291H49.3133C49.4777 37.291 49.6318 37.3214 49.7771 37.382C49.9225 37.4427 50.0487 37.5265 50.1573 37.6334C50.266 37.7403 50.3511 37.8645 50.4127 38.0075C50.4744 38.1505 50.5052 38.3022 50.5052 38.464V40.2653C50.5052 40.4271 50.4744 40.5787 50.4127 40.7218ZM50.0179 38.4365C50.0179 38.3397 49.9988 38.2502 49.9621 38.165C49.9254 38.0812 49.8755 38.0075 49.8109 37.9439C49.7478 37.8818 49.6729 37.8327 49.5863 37.7952C49.4997 37.759 49.4087 37.7403 49.3103 37.7403H48.9859C48.8876 37.7403 48.7965 37.759 48.7099 37.7952C48.6233 37.8313 48.5499 37.8804 48.4853 37.9439C48.4222 38.0061 48.3723 38.0797 48.3341 38.165C48.2974 38.2487 48.2784 38.3397 48.2784 38.4365V40.2927C48.2784 40.3895 48.2974 40.4791 48.3341 40.5643C48.3708 40.6495 48.4208 40.7218 48.4853 40.7853C48.5485 40.8474 48.6233 40.8965 48.7099 40.9341C48.7965 40.9717 48.8876 40.989 48.9859 40.989H49.3103C49.4087 40.989 49.4997 40.9702 49.5863 40.9341C49.6714 40.898 49.7463 40.8489 49.8109 40.7853C49.8755 40.7218 49.9239 40.6495 49.9621 40.5643C49.9988 40.4805 50.0179 40.3895 50.0179 40.2927V38.4365Z" fill="#606161"/>
<path d="M52.5113 37.8236C52.413 37.8236 52.3219 37.8424 52.2353 37.8785C52.1487 37.9146 52.0753 37.9637 52.0107 38.0273C51.9476 38.0894 51.8977 38.163 51.8595 38.2483C51.8228 38.332 51.8038 38.423 51.8038 38.5198V41.3626H51.3164V37.3686H51.4793L51.745 37.7745C51.8566 37.6257 51.9946 37.5087 52.1634 37.422C52.3308 37.3353 52.5142 37.292 52.7124 37.292H52.9972V37.8265H52.5098L52.5113 37.8236Z" fill="#606161"/>
<path d="M58.4455 40.5225C58.3736 40.6886 58.2737 40.8345 58.146 40.9587C58.0183 41.0829 57.8701 41.1812 57.6998 41.2534C57.5295 41.3256 57.3475 41.3603 57.1552 41.3603H55.3555V35.7686H57.1552C57.3475 35.7686 57.5295 35.8047 57.6998 35.8754C57.8701 35.9462 58.0183 36.0445 58.146 36.1701C58.2723 36.2944 58.3721 36.4417 58.4455 36.6093C58.5189 36.7768 58.5541 36.9559 58.5541 37.1452V39.988C58.5541 40.1772 58.5174 40.3563 58.4455 40.5225ZM58.0433 37.1452C58.0433 37.021 58.0198 36.9039 57.9713 36.7956C57.9244 36.6873 57.8583 36.5934 57.7746 36.511C57.691 36.4287 57.5955 36.3651 57.4855 36.3175C57.3754 36.2698 57.2579 36.2467 57.1302 36.2467H55.8663V40.8793H57.1302C57.2565 40.8793 57.3754 40.8562 57.4855 40.8085C57.5955 40.7608 57.691 40.6987 57.7746 40.6178C57.8583 40.5369 57.9229 40.443 57.9713 40.3347C58.0183 40.2263 58.0433 40.1108 58.0433 39.9851V37.1423V37.1452Z" fill="#606161"/>
<path d="M59.4062 36.4085V35.7686H59.9729V36.4085H59.4062ZM59.4459 41.3617V37.3676H59.9332V41.3617H59.4459Z" fill="#606161"/>
<path d="M63.5632 42.3088C63.5016 42.4446 63.4164 42.5601 63.3078 42.6554C63.1992 42.7508 63.0729 42.8259 62.9276 42.8794C62.7823 42.9328 62.6281 42.9588 62.4637 42.9588H62.2612C62.0967 42.9588 61.9426 42.9314 61.7973 42.8794C61.652 42.8259 61.5257 42.7508 61.4171 42.6554C61.3085 42.5601 61.2233 42.4431 61.1617 42.3088C61.1 42.173 61.0692 42.0256 61.0692 41.8639V41.848C61.0692 41.692 61.0985 41.5489 61.1558 41.4189C61.2145 41.2889 61.2938 41.1763 61.3936 41.0795C61.2674 41.0044 61.1661 40.9018 61.0912 40.7732C61.0163 40.6447 60.9782 40.5017 60.9782 40.3457C60.9782 40.2055 61.009 40.0741 61.0692 39.9542C61.1294 39.8343 61.213 39.7346 61.3187 39.6595C61.1925 39.5497 61.0912 39.4197 61.0178 39.2652C60.9444 39.112 60.9062 38.9445 60.9062 38.7625V38.462C60.9062 38.3002 60.9371 38.1486 60.9987 38.0055C61.0604 37.8625 61.1455 37.7383 61.2542 37.6314C61.3628 37.5245 61.489 37.4407 61.6343 37.3801C61.7797 37.3194 61.9338 37.2891 62.0982 37.2891H62.3008C62.499 37.2891 62.6825 37.3324 62.8498 37.4191C63.0171 37.5057 63.1566 37.6242 63.2682 37.7715L63.5339 37.3656H63.6968V38.7625C63.6968 38.9243 63.666 39.0759 63.6043 39.2189C63.5427 39.3619 63.4575 39.4862 63.3489 39.5931C63.2403 39.7 63.114 39.7837 62.9687 39.8444C62.8234 39.9051 62.6692 39.9354 62.5048 39.9354H61.7988C61.743 39.9354 61.6901 39.947 61.6402 39.9686C61.5903 39.9903 61.5463 40.0206 61.5081 40.0568C61.4699 40.0929 61.4406 40.1362 61.4186 40.1868C61.398 40.2373 61.3863 40.2893 61.3863 40.3442C61.3863 40.3991 61.3965 40.4511 61.4186 40.5002C61.4391 40.5493 61.4699 40.5927 61.5081 40.6302C61.5463 40.6678 61.5903 40.6967 61.6402 40.7183C61.6901 40.74 61.743 40.7501 61.7988 40.7501H62.4652C62.6296 40.7501 62.7837 40.7776 62.9291 40.8296C63.0744 40.883 63.2006 40.9581 63.3093 41.0535C63.4179 41.1488 63.503 41.2658 63.5647 41.4002C63.6263 41.5359 63.6572 41.6833 63.6572 41.8451V41.861C63.6572 42.0228 63.6263 42.1701 63.5647 42.3059L63.5632 42.3088ZM63.2124 38.436C63.2124 38.3392 63.1933 38.2497 63.1566 38.1644C63.1199 38.0807 63.0685 38.007 63.0039 37.9434C62.9393 37.8813 62.8645 37.8322 62.7779 37.7946C62.6913 37.7571 62.6003 37.7398 62.5019 37.7398H62.0982C61.9999 37.7398 61.9089 37.7585 61.8222 37.7946C61.7356 37.8308 61.6622 37.8799 61.5991 37.9434C61.536 38.007 61.4861 38.0792 61.4479 38.1644C61.4097 38.2497 61.3921 38.3392 61.3921 38.436V38.7914C61.3921 38.8881 61.4112 38.9777 61.4479 39.0629C61.4846 39.1482 61.5345 39.2204 61.5991 39.2839C61.6637 39.3475 61.7371 39.3952 61.8222 39.4327C61.9074 39.4688 61.9999 39.4876 62.0982 39.4876H62.5019C62.6003 39.4876 62.6913 39.4688 62.7779 39.4327C62.863 39.3966 62.9393 39.3475 63.0039 39.2839C63.0685 39.2218 63.1199 39.1482 63.1566 39.0629C63.1933 38.9791 63.2124 38.8881 63.2124 38.7914V38.436ZM63.1918 41.8249C63.1918 41.7281 63.1727 41.6428 63.136 41.5648C63.0993 41.4883 63.0494 41.4233 62.9848 41.3713C62.9217 41.3193 62.8469 41.2788 62.7617 41.2499C62.6751 41.221 62.5841 41.2066 62.4858 41.2066H62.2362C62.1379 41.2066 62.0468 41.221 61.9602 41.2499C61.8751 41.2788 61.8002 41.3193 61.7356 41.3713C61.671 41.4233 61.6226 41.4883 61.5844 41.5648C61.5477 41.6414 61.5287 41.7281 61.5287 41.8249V41.887C61.5287 41.9837 61.5477 42.069 61.5844 42.1441C61.6211 42.2192 61.671 42.2842 61.7356 42.3377C61.7988 42.3911 61.8736 42.4315 61.9602 42.4604C62.0454 42.4893 62.1379 42.5038 62.2362 42.5038H62.4858C62.5841 42.5038 62.6751 42.4893 62.7617 42.4604C62.8469 42.4315 62.9217 42.3911 62.9848 42.3377C63.048 42.2842 63.0979 42.2207 63.136 42.1441C63.1727 42.069 63.1918 41.9823 63.1918 41.887V41.8249Z" fill="#606161"/>
<path d="M64.5547 36.4085V35.7686H65.1213V36.4085H64.5547ZM64.5943 41.3617V37.3676H65.0817V41.3617H64.5943Z" fill="#606161"/>
<path d="M67.5346 41.3613C67.3863 41.3613 67.2469 41.3339 67.1162 41.279C66.9856 41.2241 66.8725 41.149 66.7756 41.0522C66.6788 40.9554 66.6024 40.8442 66.5452 40.7171C66.4879 40.59 66.46 40.4527 66.46 40.3083V37.8237H65.7305V37.3672H66.46V36.4081L66.9474 36.3301V37.3672H67.9779V37.8237H66.9474V40.3314C66.9474 40.4123 66.9621 40.4874 66.9929 40.5553C67.0237 40.6246 67.0648 40.6853 67.1177 40.7359C67.1705 40.7864 67.2322 40.8283 67.3041 40.8586C67.376 40.889 67.4524 40.9034 67.5346 40.9034H67.9779V41.3599H67.5346V41.3613Z" fill="#606161"/>
<path d="M71.2607 41.3612L70.9906 40.964C70.8791 41.107 70.7411 41.2225 70.5738 41.3092C70.4079 41.3959 70.2244 41.4392 70.0262 41.4392H69.9029C69.7385 41.4392 69.5844 41.4089 69.439 41.3482C69.2937 41.2875 69.1675 41.2038 69.0588 41.0969C68.9502 40.99 68.8651 40.8657 68.8034 40.7227C68.7418 40.5797 68.7109 40.428 68.7109 40.2663V40.2273C68.7109 40.0655 68.7418 39.9138 68.8034 39.7708C68.8651 39.6278 68.9502 39.5035 69.0588 39.3967C69.1675 39.2898 69.2937 39.206 69.439 39.1453C69.5844 39.0846 69.7385 39.0543 69.9029 39.0543H70.9334V38.4375C70.9334 38.3407 70.9143 38.2512 70.8776 38.1659C70.8409 38.0821 70.791 38.0085 70.7264 37.9449C70.6633 37.8828 70.5884 37.8337 70.5018 37.7961C70.4152 37.7586 70.3242 37.7412 70.2259 37.7412H69.9411C69.8427 37.7412 69.7517 37.76 69.6651 37.7961C69.5785 37.8322 69.5051 37.8814 69.4405 37.9449C69.3774 38.007 69.3275 38.0807 69.2893 38.1659C69.2511 38.2512 69.2335 38.3407 69.2335 38.4375V38.5819L68.7462 38.5039V38.4649C68.7462 38.3032 68.777 38.1515 68.8386 38.0085C68.9003 37.8655 68.9854 37.7412 69.0941 37.6343C69.2027 37.5275 69.3289 37.4437 69.4743 37.383C69.6196 37.3223 69.7737 37.292 69.9381 37.292H70.2229C70.3873 37.292 70.5415 37.3223 70.6868 37.383C70.8321 37.4437 70.9584 37.5275 71.067 37.6343C71.1756 37.7412 71.2607 37.8655 71.3224 38.0085C71.3841 38.1515 71.4149 38.3032 71.4149 38.4649V41.3626H71.2519L71.2607 41.3612ZM70.9363 39.427H69.9058C69.8075 39.427 69.7165 39.4458 69.6299 39.4819C69.5433 39.518 69.4699 39.5686 69.4067 39.6321C69.3436 39.6957 69.2937 39.7693 69.2555 39.8546C69.2174 39.9398 69.1998 40.0294 69.1998 40.1261V40.2937C69.1998 40.3905 69.2188 40.48 69.2555 40.5653C69.2922 40.6505 69.3422 40.7227 69.4067 40.7863C69.4699 40.8484 69.5447 40.8975 69.6299 40.9351C69.715 40.9726 69.8075 40.99 69.9058 40.99H70.2303C70.3286 40.99 70.4196 40.9712 70.5062 40.9351C70.5928 40.899 70.6662 40.8498 70.7308 40.7863C70.7954 40.7227 70.8439 40.6505 70.882 40.5653C70.9187 40.4815 70.9378 40.3905 70.9378 40.2937V39.4284L70.9363 39.427Z" fill="#606161"/>
<path d="M72.3984 41.3613V35.7695H72.8858V41.3613H72.3984Z" fill="#606161"/>
<path d="M78.7331 40.6004C78.6611 40.7665 78.5613 40.9124 78.4336 41.0366C78.3059 41.1608 78.1591 41.2591 77.9903 41.3313C77.8215 41.4021 77.6409 41.4382 77.4472 41.4382H77.0435C76.8512 41.4382 76.6692 41.4021 76.4989 41.3313C76.3286 41.2605 76.1803 41.1608 76.0526 41.0366C75.9264 40.9124 75.8266 40.7665 75.7532 40.6004C75.6798 40.4342 75.6445 40.2551 75.6445 40.0659V37.0627C75.6445 36.8735 75.6812 36.6944 75.7532 36.5282C75.8251 36.3621 75.9264 36.2162 76.0526 36.092C76.1789 35.9678 76.3286 35.8695 76.4989 35.7973C76.6692 35.7265 76.8512 35.6904 77.0435 35.6904H77.4472C77.6395 35.6904 77.8215 35.7265 77.9903 35.7973C78.1591 35.8695 78.3074 35.9678 78.4336 36.092C78.5599 36.2162 78.6597 36.3621 78.7331 36.5282C78.805 36.6944 78.8417 36.8735 78.8417 37.0627V37.2895L78.3309 37.3675V37.0642C78.3309 36.9399 78.3074 36.8229 78.2604 36.7146C78.2134 36.6063 78.1474 36.5124 78.0666 36.4315C77.9859 36.3506 77.889 36.287 77.7789 36.2408C77.6688 36.1946 77.5514 36.17 77.4237 36.17H77.067C76.9407 36.17 76.8218 36.1931 76.7117 36.2408C76.6016 36.2885 76.5062 36.3506 76.4225 36.4315C76.3389 36.5124 76.2743 36.6063 76.2258 36.7146C76.1774 36.8229 76.1539 36.9385 76.1539 37.0642V40.0673C76.1539 40.1916 76.1774 40.3086 76.2258 40.4169C76.2743 40.5252 76.3389 40.6191 76.4225 40.7015C76.5062 40.7838 76.6016 40.8474 76.7117 40.895C76.8218 40.9427 76.9393 40.9658 77.067 40.9658H77.4237C77.5499 40.9658 77.6688 40.9427 77.7789 40.895C77.889 40.8474 77.9844 40.7838 78.0666 40.7015C78.1488 40.6191 78.2134 40.5252 78.2604 40.4169C78.3074 40.3086 78.3309 40.193 78.3309 40.0673V39.7625L78.8417 39.8449V40.0673C78.8417 40.2566 78.805 40.4357 78.7331 40.6018V40.6004Z" fill="#606161"/>
<path d="M82.2721 40.7218C82.2105 40.8648 82.1253 40.989 82.0167 41.0959C81.9081 41.2028 81.7818 41.2866 81.6365 41.3472C81.4912 41.4079 81.337 41.4382 81.1726 41.4382H80.8482C80.6838 41.4382 80.5297 41.4079 80.3843 41.3472C80.239 41.2866 80.1128 41.2028 80.0042 41.0959C79.8955 40.989 79.8104 40.8648 79.7487 40.7218C79.6871 40.5787 79.6562 40.4271 79.6562 40.2653V38.464C79.6562 38.3022 79.6871 38.1505 79.7487 38.0075C79.8104 37.8645 79.8955 37.7403 80.0042 37.6334C80.1128 37.5265 80.239 37.4427 80.3843 37.382C80.5297 37.3214 80.6838 37.291 80.8482 37.291H81.1726C81.337 37.291 81.4912 37.3214 81.6365 37.382C81.7818 37.4427 81.9081 37.5265 82.0167 37.6334C82.1253 37.7403 82.2105 37.8645 82.2721 38.0075C82.3338 38.1505 82.3646 38.3022 82.3646 38.464V40.2653C82.3646 40.4271 82.3338 40.5787 82.2721 40.7218ZM81.8772 38.4365C81.8772 38.3397 81.8582 38.2502 81.8215 38.165C81.7848 38.0812 81.7348 38.0075 81.6703 37.9439C81.6071 37.8818 81.5323 37.8327 81.4457 37.7952C81.3591 37.7576 81.268 37.7403 81.1697 37.7403H80.8453C80.7469 37.7403 80.6559 37.759 80.5693 37.7952C80.4827 37.8313 80.4093 37.8804 80.3462 37.9439C80.2831 38.0075 80.2331 38.0797 80.195 38.165C80.1568 38.2502 80.1392 38.3397 80.1392 38.4365V40.2927C80.1392 40.3895 80.1583 40.4791 80.195 40.5643C80.2317 40.6495 80.2816 40.7218 80.3462 40.7853C80.4093 40.8474 80.4842 40.8965 80.5693 40.9341C80.6544 40.9717 80.7469 40.989 80.8453 40.989H81.1697C81.268 40.989 81.3591 40.9702 81.4457 40.9341C81.5323 40.898 81.6057 40.8489 81.6703 40.7853C81.7348 40.7218 81.7833 40.6495 81.8215 40.5643C81.8582 40.4805 81.8772 40.3895 81.8772 40.2927V38.4365Z" fill="#606161"/>
<path d="M87.4612 41.3617V38.4365C87.4612 38.3397 87.4421 38.2502 87.4054 38.165C87.3687 38.0812 87.3188 38.0075 87.2542 37.9439C87.1911 37.8818 87.1162 37.8327 87.0296 37.7952C86.943 37.7576 86.852 37.7403 86.7536 37.7403H86.5114C86.4131 37.7403 86.3221 37.759 86.2355 37.7952C86.1489 37.8313 86.074 37.8804 86.0094 37.9439C85.9448 38.0061 85.8934 38.0797 85.8567 38.165C85.82 38.2487 85.801 38.3397 85.801 38.4365V41.3617H85.318V38.4365C85.318 38.3397 85.2989 38.2502 85.2622 38.165C85.2255 38.0797 85.1741 38.0075 85.1095 37.9439C85.045 37.8818 84.9701 37.8327 84.8835 37.7952C84.7969 37.7576 84.7059 37.7403 84.6075 37.7403H84.3653C84.267 37.7403 84.1759 37.759 84.0893 37.7952C84.0027 37.8313 83.9293 37.8804 83.8662 37.9439C83.8031 38.0075 83.7532 38.0797 83.715 38.165C83.6768 38.2502 83.6592 38.3397 83.6592 38.4365V41.3617H83.1719V37.3676H83.3348L83.6005 37.7735C83.7121 37.6247 83.8515 37.5077 84.0189 37.421C84.1862 37.3344 84.3697 37.291 84.5679 37.291H84.6075C84.838 37.291 85.045 37.3474 85.2299 37.4586C85.4149 37.5698 85.5573 37.7186 85.6586 37.9035C85.7085 37.8125 85.7701 37.7287 85.845 37.6536C85.9184 37.5785 86.0006 37.5135 86.0901 37.46C86.1797 37.4066 86.278 37.3647 86.3837 37.3358C86.4894 37.3055 86.5995 37.291 86.7125 37.291H86.7522C86.9166 37.291 87.0707 37.3214 87.216 37.382C87.3614 37.4427 87.4876 37.5265 87.5962 37.6334C87.7049 37.7403 87.79 37.8645 87.8517 38.0075C87.9133 38.1505 87.9441 38.3022 87.9441 38.464V41.3617H87.4568H87.4612Z" fill="#606161"/>
<path d="M93.0432 41.3617V38.4365C93.0432 38.3397 93.0241 38.2502 92.9874 38.165C92.9507 38.0812 92.9008 38.0075 92.8362 37.9439C92.7731 37.8818 92.6983 37.8327 92.6116 37.7952C92.525 37.7576 92.434 37.7403 92.3357 37.7403H92.0935C91.9951 37.7403 91.9041 37.759 91.8175 37.7952C91.7309 37.8313 91.656 37.8804 91.5914 37.9439C91.5268 38.0061 91.4755 38.0797 91.4388 38.165C91.4021 38.2487 91.383 38.3397 91.383 38.4365V41.3617H90.9V38.4365C90.9 38.3397 90.881 38.2502 90.8443 38.165C90.8076 38.0797 90.7562 38.0075 90.6916 37.9439C90.627 37.8818 90.5521 37.8327 90.4655 37.7952C90.3789 37.7576 90.2879 37.7403 90.1895 37.7403H89.9473C89.849 37.7403 89.758 37.759 89.6714 37.7952C89.5848 37.8313 89.5114 37.8804 89.4482 37.9439C89.3851 38.0075 89.3352 38.0797 89.297 38.165C89.2589 38.2502 89.2413 38.3397 89.2413 38.4365V41.3617H88.7539V37.3676H88.9168L89.1825 37.7735C89.2941 37.6247 89.4336 37.5077 89.6009 37.421C89.7683 37.3344 89.9517 37.291 90.1499 37.291H90.1895C90.42 37.291 90.627 37.3474 90.812 37.4586C90.9969 37.5698 91.1393 37.7186 91.2406 37.9035C91.2905 37.8125 91.3522 37.7287 91.427 37.6536C91.5004 37.5785 91.5826 37.5135 91.6722 37.46C91.7617 37.4066 91.8601 37.3647 91.9658 37.3358C92.0715 37.3055 92.1815 37.291 92.2946 37.291H92.3342C92.4986 37.291 92.6528 37.3214 92.7981 37.382C92.9434 37.4427 93.0697 37.5265 93.1783 37.6334C93.2869 37.7403 93.372 37.8645 93.4337 38.0075C93.4954 38.1505 93.5262 38.3022 93.5262 38.464V41.3617H93.0388H93.0432Z" fill="#606161"/>
<path d="M96.9596 40.7218C96.898 40.8648 96.8128 40.989 96.7042 41.0959C96.5956 41.2028 96.4693 41.2866 96.324 41.3472C96.1787 41.4079 96.0245 41.4382 95.8601 41.4382H95.5357C95.3713 41.4382 95.2172 41.4079 95.0719 41.3472C94.9265 41.2866 94.8003 41.2028 94.6917 41.0959C94.583 40.989 94.4979 40.8648 94.4362 40.7218C94.3746 40.5787 94.3438 40.4271 94.3438 40.2653V38.464C94.3438 38.3022 94.3746 38.1505 94.4362 38.0075C94.4979 37.8645 94.583 37.7403 94.6917 37.6334C94.8003 37.5265 94.9265 37.4427 95.0719 37.382C95.2172 37.3214 95.3713 37.291 95.5357 37.291H95.8601C96.0245 37.291 96.1787 37.3214 96.324 37.382C96.4693 37.4427 96.5956 37.5265 96.7042 37.6334C96.8128 37.7403 96.898 37.8645 96.9596 38.0075C97.0213 38.1505 97.0521 38.3022 97.0521 38.464V39.4044H94.8282V40.2942C94.8282 40.391 94.8473 40.4805 94.884 40.5657C94.9207 40.651 94.9706 40.7232 95.0352 40.7868C95.0983 40.8489 95.1731 40.898 95.2583 40.9355C95.3434 40.9731 95.4359 40.9904 95.5343 40.9904H95.8587C95.957 40.9904 96.048 40.9716 96.1346 40.9355C96.2212 40.8994 96.2946 40.8503 96.3592 40.7868C96.4238 40.7232 96.4723 40.651 96.5104 40.5657C96.5471 40.482 96.5662 40.391 96.5662 40.2942V40.0284L97.0536 40.1064V40.2667C97.0536 40.4285 97.0227 40.5802 96.9611 40.7232L96.9596 40.7218ZM96.5647 38.4365C96.5647 38.3397 96.5457 38.2502 96.509 38.165C96.4723 38.0812 96.4224 38.0075 96.3578 37.9439C96.2946 37.8818 96.2198 37.8327 96.1332 37.7952C96.0466 37.7576 95.9556 37.7403 95.8572 37.7403H95.5328C95.4344 37.7403 95.3434 37.759 95.2568 37.7952C95.1702 37.8313 95.0968 37.8804 95.0337 37.9439C94.9706 38.0075 94.9207 38.0797 94.8825 38.165C94.8443 38.2502 94.8267 38.3397 94.8267 38.4365V39.0288H96.5633V38.4365H96.5647Z" fill="#606161"/>
<path d="M99.0606 37.8236C98.9623 37.8236 98.8713 37.8424 98.7847 37.8785C98.698 37.9146 98.6246 37.9637 98.5615 38.0273C98.4984 38.0908 98.4485 38.163 98.4103 38.2483C98.3722 38.3335 98.3545 38.423 98.3545 38.5198V41.3626H97.8672V37.3686H98.0301L98.2958 37.7745C98.4074 37.6257 98.5468 37.5087 98.7142 37.422C98.8815 37.3353 99.065 37.292 99.2632 37.292H99.548V37.8265H99.0606V37.8236Z" fill="#606161"/>
<path d="M102.655 40.7218C102.593 40.8648 102.508 40.989 102.4 41.0959C102.291 41.2028 102.165 41.2866 102.019 41.3472C101.874 41.4079 101.72 41.4382 101.555 41.4382H101.231C101.067 41.4382 100.912 41.4079 100.767 41.3472C100.622 41.2866 100.496 41.2028 100.387 41.0959C100.278 40.989 100.193 40.8648 100.132 40.7218C100.07 40.5787 100.039 40.4271 100.039 40.2653V38.464C100.039 38.3022 100.07 38.1505 100.132 38.0075C100.193 37.8645 100.278 37.7403 100.387 37.6334C100.496 37.5265 100.622 37.4427 100.767 37.382C100.912 37.3214 101.067 37.291 101.231 37.291H101.555C101.72 37.291 101.874 37.3214 102.019 37.382C102.165 37.4427 102.291 37.5265 102.4 37.6334C102.508 37.7403 102.593 37.8645 102.655 38.0075C102.717 38.1505 102.747 38.3022 102.747 38.464V38.6243L102.26 38.7023V38.4365C102.26 38.3397 102.241 38.2502 102.204 38.165C102.168 38.0812 102.118 38.0075 102.053 37.9439C101.99 37.8818 101.915 37.8327 101.828 37.7952C101.742 37.7576 101.651 37.7403 101.553 37.7403H101.228C101.13 37.7403 101.039 37.759 100.952 37.7952C100.866 37.8313 100.792 37.8804 100.729 37.9439C100.666 38.0075 100.616 38.0797 100.578 38.165C100.54 38.2502 100.522 38.3397 100.522 38.4365V40.2927C100.522 40.3895 100.541 40.4791 100.578 40.5643C100.614 40.6495 100.664 40.7218 100.729 40.7853C100.792 40.8474 100.867 40.8965 100.952 40.9341C101.037 40.9717 101.13 40.989 101.228 40.989H101.553C101.651 40.989 101.742 40.9702 101.828 40.9341C101.915 40.898 101.988 40.8489 102.053 40.7853C102.118 40.7218 102.166 40.6495 102.204 40.5643C102.241 40.4805 102.26 40.3895 102.26 40.2927V40.0269L102.747 40.1049V40.2653C102.747 40.4271 102.717 40.5787 102.655 40.7218Z" fill="#606161"/>
<path d="M106.178 40.7218C106.117 40.8648 106.032 40.989 105.923 41.0959C105.814 41.2028 105.688 41.2866 105.543 41.3472C105.397 41.4079 105.243 41.4382 105.079 41.4382H104.754C104.59 41.4382 104.436 41.4079 104.291 41.3472C104.145 41.2866 104.019 41.2028 103.91 41.0959C103.802 40.989 103.717 40.8648 103.655 40.7218C103.593 40.5787 103.562 40.4271 103.562 40.2653V38.464C103.562 38.3022 103.593 38.1505 103.655 38.0075C103.717 37.8645 103.802 37.7403 103.91 37.6334C104.019 37.5265 104.145 37.4427 104.291 37.382C104.436 37.3214 104.59 37.291 104.754 37.291H105.079C105.243 37.291 105.397 37.3214 105.543 37.382C105.688 37.4427 105.814 37.5265 105.923 37.6334C106.032 37.7403 106.117 37.8645 106.178 38.0075C106.24 38.1505 106.271 38.3022 106.271 38.464V39.4044H104.047V40.2942C104.047 40.391 104.066 40.4805 104.103 40.5657C104.139 40.651 104.189 40.7232 104.254 40.7868C104.317 40.8489 104.392 40.898 104.477 40.9355C104.562 40.9731 104.655 40.9904 104.753 40.9904H105.077C105.176 40.9904 105.267 40.9716 105.353 40.9355C105.44 40.8994 105.513 40.8503 105.578 40.7868C105.643 40.7232 105.691 40.651 105.729 40.5657C105.766 40.482 105.785 40.391 105.785 40.2942V40.0284L106.272 40.1064V40.2667C106.272 40.4285 106.241 40.5802 106.18 40.7232L106.178 40.7218ZM105.783 38.4365C105.783 38.3397 105.764 38.2502 105.728 38.165C105.691 38.0812 105.641 38.0075 105.577 37.9439C105.513 37.8818 105.439 37.8327 105.352 37.7952C105.265 37.7576 105.174 37.7403 105.076 37.7403H104.752C104.653 37.7403 104.562 37.759 104.476 37.7952C104.389 37.8313 104.316 37.8804 104.252 37.9439C104.189 38.0075 104.139 38.0797 104.101 38.165C104.063 38.2502 104.045 38.3397 104.045 38.4365V39.0288H105.782V38.4365H105.783Z" fill="#606161"/>
<path d="M12.9428 6.2019C16.8358 6.2019 19.9655 7.36619 22.3332 9.6962C24.701 12.0262 25.8857 15.1059 25.8857 18.9368C25.8857 22.7676 24.6966 25.8271 22.3215 28.1658C19.9449 30.5045 16.8182 31.6731 12.9443 31.6731C9.07041 31.6731 5.96277 30.5002 3.57884 28.1528C1.19197 25.8069 0 22.7344 0 18.9368C0 15.1391 1.18756 12.0464 3.56416 9.7092C5.94076 7.37052 9.06747 6.2019 12.9428 6.2019ZM12.9428 11.3011C9.96732 11.3011 7.74779 12.4567 6.28279 14.7708C5.54882 15.9322 5.1833 17.3204 5.1833 18.9368C5.1833 20.4131 5.51212 21.7363 6.16975 22.9049C6.85969 24.1327 7.85495 25.0644 9.15261 25.7044C10.3328 26.2836 11.5953 26.574 12.9443 26.574C15.9183 26.574 18.1393 25.414 19.6043 23.0927C20.3383 21.9399 20.7038 20.5561 20.7038 18.9382C20.7038 16.5172 19.9126 14.6191 18.3272 13.2425C16.8431 11.9496 15.0493 11.3025 12.9428 11.3025V11.3011Z" fill="url(#paint0_linear_1176_695)"/>
<path d="M103.114 24.4346L106.893 28.1528C105.376 29.6782 103.464 30.7154 101.155 31.2629C100.026 31.5359 98.8162 31.6731 97.5273 31.6731C93.6681 31.6731 90.5473 30.5002 88.1618 28.1528C85.7779 25.8069 84.5859 22.7344 84.5859 18.9368C84.5859 15.1391 85.7735 12.0464 88.1501 9.7092C90.5252 7.37052 93.6519 6.2019 97.5273 6.2019C101.403 6.2019 104.551 7.36619 106.919 9.6962L103.114 13.4404C101.632 12.0132 99.7689 11.3011 97.5273 11.3011C94.5533 11.3011 92.3337 12.4567 90.8673 14.7708C90.1348 15.9322 89.7678 17.3204 89.7678 18.9368C89.7678 20.4131 90.0981 21.7363 90.7542 22.9049C91.4456 24.1327 92.4394 25.0644 93.7371 25.7044C94.9173 26.2836 96.1812 26.574 97.5288 26.574C99.7703 26.574 101.633 25.8618 103.116 24.4346H103.114Z" fill="url(#paint1_linear_1176_695)"/>
<path d="M66.6187 10.7583C67.0077 10.7583 67.3233 10.4478 67.3233 10.065C67.3233 9.68217 67.0077 9.37305 66.6187 9.37305C66.2297 9.37305 65.9141 9.68362 65.9141 10.065C65.9141 10.4463 66.2297 10.7583 66.6187 10.7583Z" fill="url(#paint2_linear_1176_695)"/>
<path d="M57.5859 18.4936C57.5859 18.5759 57.7342 18.5774 57.7357 18.4936C57.7357 18.4517 57.7034 18.4199 57.6608 18.4199C57.6182 18.4199 57.5859 18.4517 57.5859 18.4936Z" fill="url(#paint3_linear_1176_695)"/>
<path d="M78.4973 9.69629C76.9663 8.1911 75.1166 7.17561 72.9514 6.64258L71.6259 7.94842C71.9092 8.59846 72.0677 9.31349 72.0677 10.0646C72.0677 10.6396 71.9753 11.1943 71.8035 11.7143C72.79 12.035 73.6869 12.5405 74.4913 13.2411C76.0752 14.6178 76.8664 16.5159 76.8664 18.9369C76.8664 20.5547 76.5009 21.9386 75.7669 23.0913C74.3019 25.4127 72.0824 26.5726 69.1069 26.5726H61.3459V19.9379C60.7602 21.3781 59.3304 22.3979 57.6614 22.3979C57.1314 22.3979 56.6265 22.2939 56.1641 22.109V31.6732H69.1069C72.9823 31.6732 76.109 30.5046 78.4841 28.1659C80.8622 25.8272 82.0483 22.7519 82.0483 18.9369C82.0483 15.1219 80.8651 12.0263 78.4988 9.69629H78.4973Z" fill="url(#paint4_linear_1176_695)"/>
<path d="M70.3984 11.5456L66.9532 10.0997C66.7638 10.0202 66.57 10.2095 66.6522 10.3958L68.1216 13.7861C68.1583 13.8713 68.2449 13.9276 68.3433 13.9233C68.4387 13.919 68.5224 13.8583 68.5517 13.7687L69.0053 12.4152L70.3808 11.9689C70.4718 11.94 70.5349 11.8576 70.5379 11.7638C70.5423 11.6699 70.4865 11.5832 70.3984 11.5456ZM68.7514 12.0209C68.6824 12.044 68.6281 12.096 68.6046 12.1653L68.3051 13.058L67.2981 10.7353L69.6586 11.7262L68.7514 12.0209Z" fill="#939598"/>
<path d="M66.6201 7.56738C65.2212 7.56738 64.082 8.68833 64.082 10.065C64.082 11.4416 65.2212 12.5625 66.6201 12.5625C66.8036 12.5625 66.9533 12.4152 66.9533 12.2346C66.9533 12.0541 66.8036 11.9067 66.6201 11.9067C65.5881 11.9067 64.7485 11.0805 64.7485 10.065C64.7485 9.04946 65.5881 8.22319 66.6201 8.22319C67.6521 8.22319 68.4917 9.04946 68.4917 10.065C68.4917 10.2455 68.6415 10.3929 68.8249 10.3929C69.0084 10.3929 69.1582 10.2455 69.1582 10.065C69.1582 8.68833 68.019 7.56738 66.6201 7.56738Z" fill="#44823D"/>
<path d="M69.4601 7.26831C68.6983 6.5186 67.6883 6.10547 66.6182 6.10547C65.5481 6.10547 64.5381 6.5186 63.7763 7.26831C62.21 8.80961 62.21 11.3187 63.7763 12.8615C64.5381 13.6112 65.5481 14.0243 66.6182 14.0243C66.8017 14.0243 66.9514 13.877 66.9514 13.6964C66.9514 13.5159 66.8017 13.3685 66.6182 13.3685C64.7671 13.3685 63.261 11.8864 63.261 10.0649C63.261 8.24336 64.7671 6.76128 66.6182 6.76128C68.4693 6.76128 69.9754 8.24336 69.9754 10.0649C69.9754 10.2455 70.1251 10.3928 70.3086 10.3928C70.4921 10.3928 70.6418 10.2455 70.6418 10.0649C70.6418 9.01184 70.222 8.01801 69.4601 7.26831Z" fill="#F29C49"/>
<path d="M27.4531 31.6733H32.635V15.3604L42.9854 23.5089V18.4286L27.4531 6.20215V31.6733Z" fill="url(#paint5_linear_1176_695)"/>
<path d="M61.1678 10.0648C61.1678 9.31364 61.3248 8.59861 61.6096 7.94857L60.7054 7.0573C59.7439 7.15264 58.8455 6.8074 58.1981 6.20215H46.6836V27.5926L51.8654 31.6719V11.3013H61.316C61.2206 10.9041 61.1692 10.4895 61.1692 10.0648H61.1678Z" fill="url(#paint6_linear_1176_695)"/>
<path d="M72.8489 14.6624C72.5612 14.6624 72.294 14.7448 72.0621 14.8791L70.738 13.5762C70.5677 13.7697 70.3842 13.9503 70.1875 14.1179L71.5116 15.4208C71.3736 15.6491 71.2899 15.912 71.2899 16.1951C71.2899 17.0401 71.9887 17.7277 72.8474 17.7277C73.7062 17.7277 74.4049 17.0401 74.4049 16.1951C74.4049 15.35 73.7062 14.6624 72.8474 14.6624H72.8489ZM72.8489 16.9607C72.4188 16.9607 72.0709 16.6169 72.0709 16.1951C72.0709 15.7733 72.4202 15.4295 72.8489 15.4295C73.2775 15.4295 73.6269 15.7733 73.6269 16.1951C73.6269 16.6169 73.2775 16.9607 72.8489 16.9607Z" fill="url(#paint7_linear_1176_695)"/>
<path d="M74.4049 0.486328C73.116 0.486328 72.0694 1.51771 72.0694 2.78456C72.0694 3.1818 72.1722 3.55449 72.3527 3.88095L70.1875 6.01161C70.3842 6.17918 70.5677 6.35974 70.738 6.55331L72.8401 4.48476C73.254 4.85455 73.803 5.08279 74.4064 5.08279C75.6952 5.08279 76.7419 4.0514 76.7419 2.78456C76.7419 1.51771 75.6937 0.486328 74.4064 0.486328H74.4049ZM74.4049 4.31719C73.5461 4.31719 72.8474 3.6296 72.8474 2.78456C72.8474 1.93951 73.5461 1.25192 74.4049 1.25192C75.2636 1.25192 75.9624 1.93951 75.9624 2.78456C75.9624 3.6296 75.2636 4.31719 74.4049 4.31719Z" fill="url(#paint8_linear_1176_695)"/>
<path d="M60.3895 5.46664C60.6772 5.46664 60.9444 5.3843 61.1763 5.24996L62.5004 6.55292C62.6707 6.35935 62.8542 6.17878 63.0509 6.01122L61.7268 4.70826C61.8633 4.48003 61.947 4.21857 61.947 3.934C61.947 3.08896 61.2483 2.40137 60.3895 2.40137C59.5308 2.40137 58.832 3.08896 58.832 3.934C58.832 4.77905 59.5308 5.46664 60.3895 5.46664ZM60.3895 3.16841C60.8196 3.16841 61.1675 3.5122 61.1675 3.934C61.1675 4.3558 60.8182 4.6996 60.3895 4.6996C59.9609 4.6996 59.6115 4.3558 59.6115 3.934C59.6115 3.5122 59.9609 3.16841 60.3895 3.16841Z" fill="url(#paint9_linear_1176_695)"/>
<path d="M63.0495 14.1179C62.8528 13.9503 62.6693 13.7697 62.499 13.5762L59.2299 16.7931C58.8145 16.4233 58.2669 16.1951 57.6636 16.1951C56.3748 16.1951 55.3281 17.2265 55.3281 18.4933C55.3281 19.7602 56.3762 20.7915 57.6636 20.7915C58.951 20.7915 59.9991 19.7602 59.9991 18.4933C59.9991 18.0961 59.8964 17.7234 59.7158 17.3969L63.0495 14.1164V14.1179ZM57.6621 20.0259C56.8034 20.0259 56.1047 19.3384 56.1047 18.4933C56.1047 17.6483 56.8034 16.9607 57.6621 16.9607C58.5209 16.9607 59.2196 17.6483 59.2196 18.4933C59.2196 19.3384 58.5209 20.0259 57.6621 20.0259Z" fill="url(#paint10_linear_1176_695)"/>
<path d="M67.0072 16.9958V15.4141C66.878 15.4227 66.7489 15.4285 66.6167 15.4285C66.4846 15.4285 66.3569 15.4227 66.2277 15.4141V16.9958C65.1253 17.1793 64.2812 18.1225 64.2812 19.2608C64.2812 20.5291 65.3294 21.559 66.6167 21.559C67.9041 21.559 68.9522 20.5277 68.9522 19.2608C68.9522 18.124 68.1082 17.1793 67.0057 16.9958H67.0072ZM66.6167 20.7935C65.758 20.7935 65.0593 20.1059 65.0593 19.2608C65.0593 18.4158 65.758 17.7282 66.6167 17.7282C67.4755 17.7282 68.1742 18.4158 68.1742 19.2608C68.1742 20.1059 67.4755 20.7935 66.6167 20.7935Z" fill="url(#paint11_linear_1176_695)"/>
<defs>
<linearGradient id="paint0_linear_1176_695" x1="17.4112" y1="19.9739" x2="89.3654" y2="37.2706" gradientUnits="userSpaceOnUse">
<stop stop-color="#1C75BC"/>
<stop offset="1" stop-color="#00AEEF"/>
</linearGradient>
<linearGradient id="paint1_linear_1176_695" x1="21.8946" y1="1.32665" x2="93.8473" y2="18.6248" gradientUnits="userSpaceOnUse">
<stop stop-color="#1C75BC"/>
<stop offset="1" stop-color="#00AEEF"/>
</linearGradient>
<linearGradient id="paint2_linear_1176_695" x1="63.9588" y1="9.48716" x2="68.5391" y2="10.5149" gradientUnits="userSpaceOnUse">
<stop stop-color="#1C75BC"/>
<stop offset="1" stop-color="#00AEEF"/>
</linearGradient>
<linearGradient id="paint3_linear_1176_695" x1="57.3804" y1="18.4271" x2="57.8656" y2="18.5359" gradientUnits="userSpaceOnUse">
<stop stop-color="#1C75BC"/>
<stop offset="1" stop-color="#00AEEF"/>
</linearGradient>
<linearGradient id="paint4_linear_1176_695" x1="22.1944" y1="9.96208" x2="103.445" y2="28.177" gradientUnits="userSpaceOnUse">
<stop stop-color="#1C75BC"/>
<stop offset="1" stop-color="#00AEEF"/>
</linearGradient>
<linearGradient id="paint5_linear_1176_695" x1="23.9903" y1="17.7785" x2="77.686" y2="36.3429" gradientUnits="userSpaceOnUse">
<stop stop-color="#1C75BC"/>
<stop offset="1" stop-color="#00AEEF"/>
</linearGradient>
<linearGradient id="paint6_linear_1176_695" x1="26.8517" y1="9.50288" x2="80.5474" y2="28.0688" gradientUnits="userSpaceOnUse">
<stop offset="0.05" stop-color="#1C75BC"/>
<stop offset="1" stop-color="#00AEEF"/>
</linearGradient>
<linearGradient id="paint7_linear_1176_695" x1="60.847" y1="13.1255" x2="79.2305" y2="17.5438" gradientUnits="userSpaceOnUse">
<stop stop-color="#1C75BC"/>
<stop offset="1" stop-color="#00AEEF"/>
</linearGradient>
<linearGradient id="paint8_linear_1176_695" x1="59.7504" y1="0.503662" x2="82.3176" y2="5.92869" gradientUnits="userSpaceOnUse">
<stop stop-color="#1C75BC"/>
<stop offset="1" stop-color="#00AEEF"/>
</linearGradient>
<linearGradient id="paint9_linear_1176_695" x1="49.7381" y1="1.73111" x2="68.1245" y2="6.15094" gradientUnits="userSpaceOnUse">
<stop stop-color="#1C75BC"/>
<stop offset="1" stop-color="#00AEEF"/>
</linearGradient>
<linearGradient id="paint10_linear_1176_695" x1="42.9725" y1="13.2338" x2="68.9834" y2="19.4868" gradientUnits="userSpaceOnUse">
<stop stop-color="#1C75BC"/>
<stop offset="1" stop-color="#00AEEF"/>
</linearGradient>
<linearGradient id="paint11_linear_1176_695" x1="55.3738" y1="15.8561" x2="73.9155" y2="20.3131" gradientUnits="userSpaceOnUse">
<stop stop-color="#1C75BC"/>
<stop offset="1" stop-color="#00AEEF"/>
</linearGradient>
</defs>
</svg>
