<svg width="133" height="44" viewBox="0 0 133 44" fill="none" xmlns="http://www.w3.org/2000/svg">
    <path d="M42.48 31.003h2.003v5.625h.05c.1-.134.228-.267.383-.4a2.84 2.84 0 0 1 .568-.401 3.45 3.45 0 0 1 .768-.3c.289-.079.623-.118 1.001-.118.567 0 1.09.112 1.569.334.478.212.884.506 1.218.885.345.378.612.823.801 1.335a4.73 4.73 0 0 1 .284 1.652c0 .59-.089 1.14-.267 1.652-.178.512-.44.957-.784 1.336a3.8 3.8 0 0 1-1.252.9c-.49.212-1.04.318-1.653.318a3.787 3.787 0 0 1-1.585-.334 2.576 2.576 0 0 1-1.168-1.068h-.034v1.202H42.48V31.003zm6.642 8.612c0-.311-.055-.612-.167-.901a2.1 2.1 0 0 0-.467-.768c-.2-.222-.445-.4-.734-.534-.29-.133-.618-.2-.985-.2a2.323 2.323 0 0 0-1.736.734c-.2.223-.356.479-.467.768-.1.29-.15.59-.15.901 0 .312.05.612.15.901.111.29.267.546.467.768a2.324 2.324 0 0 0 1.736.734c.367 0 .695-.066.985-.2.289-.133.534-.311.734-.534a2.1 2.1 0 0 0 .467-.768c.112-.289.167-.59.167-.9zM58.333 42.52h-.05c-.29.455-.657.79-1.102 1-.445.2-.934.301-1.468.301a3.99 3.99 0 0 1-1.085-.15c-.345-.1-.657-.25-.935-.45-.267-.201-.484-.451-.65-.752a2.13 2.13 0 0 1-.251-1.051c0-.434.078-.801.234-1.102.155-.311.361-.567.617-.768.267-.211.573-.378.918-.5a5.77 5.77 0 0 1 1.068-.267 7.841 7.841 0 0 1 1.135-.117c.378-.022.734-.034 1.068-.034h.501v-.217c0-.5-.172-.873-.517-1.118-.345-.256-.785-.384-1.319-.384-.423 0-.818.078-1.185.234a2.888 2.888 0 0 0-.951.6l-1.052-1.05a3.89 3.89 0 0 1 1.553-.985c.6-.2 1.218-.3 1.852-.3.568 0 1.046.066 1.435.2.39.122.712.283.968.484.256.2.451.434.585.7.144.257.244.518.3.785.067.267.106.529.117.785.01.244.016.461.016.65v4.607h-1.802v-1.102zm-.117-2.488H57.8c-.278 0-.59.012-.935.034a4.672 4.672 0 0 0-.984.167c-.3.078-.557.2-.768.367-.212.156-.317.378-.317.667 0 .19.039.35.117.484.089.123.2.229.333.318.134.089.284.155.451.2.167.033.334.05.5.05.69 0 1.197-.161 1.52-.484.333-.334.5-.785.5-1.352v-.45zM62.057 41.768l4.289-4.523v-.033h-4.09V35.61h6.51v1.819l-4.34 4.59h4.54v1.602h-6.91v-1.853zM76.016 42.52h-.05c-.29.455-.656.79-1.101 1-.445.2-.935.301-1.47.301a3.99 3.99 0 0 1-1.084-.15c-.345-.1-.656-.25-.935-.45-.267-.201-.484-.451-.65-.752a2.13 2.13 0 0 1-.25-1.051c0-.434.077-.801.233-1.102.156-.311.361-.567.617-.768.267-.211.573-.378.918-.5a5.77 5.77 0 0 1 1.068-.267 7.841 7.841 0 0 1 1.135-.117c.379-.022.735-.034 1.069-.034h.5v-.217c0-.5-.172-.873-.517-1.118-.345-.256-.785-.384-1.319-.384-.423 0-.818.078-1.185.234a2.89 2.89 0 0 0-.951.6l-1.051-1.05a3.89 3.89 0 0 1 1.552-.985c.6-.2 1.218-.3 1.852-.3.568 0 1.046.066 1.436.2.389.122.712.283.968.484.255.2.45.434.584.7.144.257.244.518.3.785.067.267.106.529.117.785.011.244.017.461.017.65v4.607h-1.803v-1.102zm-.117-2.488h-.417c-.278 0-.59.012-.934.034a4.673 4.673 0 0 0-.985.167c-.3.078-.556.2-.768.367-.211.156-.317.378-.317.667 0 .19.039.35.117.484.089.123.2.229.334.318.133.089.283.155.45.2.167.033.334.05.5.05.69 0 1.197-.161 1.52-.484.333-.334.5-.785.5-1.352v-.45zM85.314 42.52h-.05c-.29.455-.656.79-1.102 1-.445.2-.934.301-1.468.301a3.99 3.99 0 0 1-1.085-.15c-.345-.1-.656-.25-.935-.45-.267-.201-.484-.451-.65-.752a2.13 2.13 0 0 1-.25-1.051c0-.434.077-.801.233-1.102.156-.311.361-.567.617-.768.267-.211.573-.378.918-.5.345-.123.701-.212 1.068-.267a7.841 7.841 0 0 1 1.135-.117 18.2 18.2 0 0 1 1.068-.034h.501v-.217c0-.5-.172-.873-.517-1.118-.345-.256-.785-.384-1.319-.384-.422 0-.817.078-1.185.234a2.887 2.887 0 0 0-.951.6l-1.052-1.05a3.892 3.892 0 0 1 1.553-.985c.6-.2 1.218-.3 1.852-.3.568 0 1.046.066 1.436.2.389.122.712.283.968.484.255.2.45.434.584.7.144.257.244.518.3.785.067.267.106.529.117.785.011.244.017.461.017.65v4.607h-1.803v-1.102zm-.117-2.488h-.417c-.278 0-.59.012-.935.034a4.674 4.674 0 0 0-.984.167c-.3.078-.557.2-.768.367-.211.156-.317.378-.317.667 0 .19.039.35.117.484.089.123.2.229.334.318.133.089.283.155.45.2.167.033.334.05.5.05.69 0 1.197-.161 1.52-.484.333-.334.5-.785.5-1.352v-.45zM89.605 35.61h2.003v1.268h.033c.223-.467.54-.829.952-1.085a2.63 2.63 0 0 1 1.418-.384c.123 0 .24.011.35.034.123.022.245.05.368.083v1.936a3.978 3.978 0 0 0-.5-.1 2.222 2.222 0 0 0-.468-.05c-.467 0-.846.089-1.135.267a2.09 2.09 0 0 0-.65.584 2.212 2.212 0 0 0-.301.668c-.045.222-.067.39-.067.5v4.29h-2.003V35.61zM1.688 10.962c0-.838.679-1.517 1.517-1.517h28.349c.838 0 1.517.679 1.517 1.517v5.637H1.688v-5.637z" fill="#008193"/>
    <path opacity=".4" d="M27.41 17.071c0-4.336-1.09-8.495-3.028-11.561-1.94-3.066-4.569-4.548-7.31-4.548-2.743 0-5.373 1.482-7.311 4.548-1.94 3.066-3.029 7.225-3.029 11.561h2.133c0-3.442.864-6.743 2.403-9.177 1.54-2.433 3.627-4.287 5.803-4.287 2.177 0 4.264 1.854 5.803 4.287 1.539 2.434 2.404 5.735 2.404 9.177h2.132z" fill="#000"/>
    <path d="M27.41 17.071c0-4.719-1.09-9.244-3.028-12.581C22.442 1.153 19.813 0 17.072 0c-2.743 0-5.373 1.153-7.311 4.49-1.94 3.337-3.029 7.862-3.029 12.581h2.059c0-3.78.872-7.404 2.425-10.076 1.553-2.672 3.66-4.59 5.855-4.59 2.196 0 4.302 1.918 5.855 4.59 1.553 2.672 2.425 6.297 2.425 10.076h2.059z" fill="#fff"/>
    <path d="M0 15.924h34.556v23.524A4.552 4.552 0 0 1 30.004 44H4.552A4.552 4.552 0 0 1 0 39.448V15.924z" fill="url(#rrlte0ngna)"/>
    <path fill-rule="evenodd" clip-rule="evenodd" d="M27.826 22.03c-.115.224-6.78 9.921-10.63 14.434-.912 1.067-2.441 1.095-3.351-.055-2.106-2.659-3.807-4.967-5.782-8.174-.273-.44-.609-1.075-.12-1.631 0 0 .538-.62 1.703.232 1.481 1.08 3.057 2.134 4.511 3.136.832.572 1.363.622 2.13.008 3.23-2.582 10.471-8.152 10.883-8.411.727-.457.819.114.646.46h.01z" fill="#fff"/>
    <path d="M4.86 11.672 0 15.924h4.86v-4.252zM34.522 15.924l-4.893-4.31v4.31h4.893z" fill="#038B9A"/>
    <path d="M1.654 14.506v-3.568a.759.759 0 0 1 1.182-.63l2.024 1.364-3.206 2.834zM33.07 10.872v3.77l-3.441-3.004 2.284-1.411a.759.759 0 0 1 1.158.645z" fill="#04A5B7"/>
    <path opacity=".3" d="M13.464 12.984a1.202 1.202 0 1 1-2.404 0 1.202 1.202 0 0 1 2.404 0zM23.082 12.984a1.202 1.202 0 1 1-2.404 0 1.202 1.202 0 0 1 2.404 0z" fill="#000"/>
    <path fill-rule="evenodd" clip-rule="evenodd" d="M45.624 14.123c0-1.085 0-2.025 1.028-2.025 1.027 0 1.027 1.203 1.027 2.083 0 .44.146.587.586.587h2.318c.44 0 .586-.293.586-.732 0-3.17-1.524-5.282-4.664-5.282-2.935 0-4.402 1.966-4.402 4.606 0 2.319.295 3.404 3.112 6.719 1.554 1.82 2.434 3.023 2.434 4.138 0 1.085 0 2.024-1.027 2.024s-1.027-1.203-1.027-2.084c0-.44-.147-.587-.586-.587H42.69c-.44 0-.587.294-.587.734 0 3.17 1.526 5.282 4.666 5.282 2.934 0 4.4-1.966 4.4-4.607 0-2.318-.264-3.404-3.08-6.72-1.554-1.818-2.465-3.02-2.465-4.136zM58.651 29.44h2.348c.293 0 .587 0 .587-.587V9.487c0-.44-.147-.587-.587-.587H58.65c-.44 0-.586.147-.586.587v6.866c0 .587 0 .587-.587.587h-.88c-.587 0-.587 0-.587-.587V9.487c0-.44-.147-.587-.587-.587h-2.348c-.439 0-.587.147-.587.587v19.365c0 .587.295.587.587.587h2.348c.294 0 .587 0 .587-.587v-7.98c0-.587 0-.587.587-.587h.88c.587 0 .587 0 .587.587v7.98c0 .587.293.587.586.587zm13.79-5.722v-9.095c0-4.402-1.613-5.868-4.548-5.868-2.934 0-4.547 1.437-4.547 5.868v9.095c0 4.431 1.613 5.87 4.547 5.87 2.935 0 4.548-1.47 4.548-5.87zm-3.521-9.183v9.301c0 1.467 0 2.405-1.027 2.405s-1.027-.938-1.027-2.405v-9.301c0-1.496 0-2.436 1.027-2.436s1.027.94 1.027 2.436zm14.376 2.23v-1.996c0-4.401-2.053-5.868-4.987-5.868h-3.521c-.44 0-.587.147-.587.587v19.365c0 .44.117.587.587.587h2.347c.41 0 .587-.146.587-.587V23.19c0-.587 0-.587.587-.587 2.934 0 4.987-1.466 4.987-5.838zm-5.574-4.079c0-.587 0-.587.587-.587 1.466 0 1.466 1.497 1.466 2.993v1.32c0 1.496 0 2.993-1.466 2.993-.587 0-.587 0-.587-.528v-6.19zm10.855 1.79c0-1.467 0-2.406 1.027-2.406 1.028 0 1.028.94 1.028 2.406v.88c0 .44.145.586.587.586h2.346c.44 0 .587-.145.587-.587v-.76c0-4.403-1.614-5.87-4.548-5.87s-4.548 1.437-4.548 5.87v9.123c0 4.431 1.614 5.87 4.548 5.87s4.547-1.47 4.547-5.87v-.733c0-.44-.145-.587-.586-.587h-2.346c-.442 0-.587.147-.587.587v.851c0 1.467 0 2.405-1.028 2.405-1.027 0-1.027-.938-1.027-2.405v-9.36zM96.5 29.439h6.191c.44 0 .587-.146.587-.587v-2.171c0-.44-.147-.586-.587-.586h-2.641c-.616 0-.616 0-.616-.617V9.488c0-.44-.146-.588-.587-.588h-2.347c-.44 0-.586.147-.586.587v19.365c0 .44.145.587.586.587zm13.086-19.952v14.348c0 1.467 0 2.405-1.027 2.405-1.028 0-1.028-.938-1.028-2.405V9.487c0-.44-.146-.587-.587-.587h-2.347c-.44 0-.587.147-.587.587v14.23c0 4.431 1.615 5.87 4.549 5.87s4.547-1.47 4.547-5.87V9.487c0-.44-.146-.587-.587-.587h-2.346c-.44 0-.587.147-.587.587zm5.868 19.952h6.337c.44 0 .587-.146.587-.587v-2.171c0-.44-.147-.586-.587-.586h-2.817c-.587 0-.587 0-.587-.587v-4.636c0-.587 0-.587.587-.587h2.817c.44 0 .587-.147.587-.587v-2.172c0-.44-.147-.586-.587-.586h-2.817c-.587 0-.587 0-.587-.587v-3.522c0-.586 0-.586.587-.586h2.817c.44 0 .587-.147.587-.587v-2.17c0-.44-.147-.588-.587-.588h-6.337c-.441 0-.587.147-.587.587v19.365c0 .587.293.587.587.587zm11.765-15.316c0-1.085 0-2.025 1.027-2.025 1.026 0 1.026 1.203 1.026 2.083 0 .44.148.587.587.587h2.319c.44 0 .587-.293.587-.732 0-3.17-1.526-5.282-4.666-5.282-2.934 0-4.401 1.966-4.401 4.606 0 2.319.293 3.404 3.11 6.719 1.555 1.82 2.436 3.023 2.436 4.138 0 1.085 0 2.024-1.028 2.024-1.026 0-1.026-1.203-1.026-2.084 0-.44-.148-.587-.587-.587h-2.318c-.441 0-.587.294-.587.734 0 3.17 1.525 5.282 4.665 5.282 2.934 0 4.402-1.966 4.402-4.607 0-2.318-.264-3.404-3.081-6.72-1.556-1.818-2.465-3.02-2.465-4.136z" fill="#003037"/>
    <defs>
        <linearGradient id="rrlte0ngna" x1="17.278" y1="15.924" x2="17.278" y2="44" gradientUnits="userSpaceOnUse">
            <stop stop-color="#009CAD"/>
            <stop offset="1" stop-color="#018EA2"/>
        </linearGradient>
    </defs>
</svg>
